<?xml version="1.0" encoding="utf-8"?>
<!-- Generator: Adobe Illustrator 18.1.0, SVG Export Plug-In . SVG Version: 6.00 Build 0)  -->
<!DOCTYPE svg PUBLIC "-//W3C//DTD SVG 1.1//EN" "http://www.w3.org/Graphics/SVG/1.1/DTD/svg11.dtd">
<svg version="1.1" id="Layer_1" xmlns="http://www.w3.org/2000/svg" xmlns:xlink="http://www.w3.org/1999/xlink" x="0px" y="0px"
	 viewBox="0 0 50 50" enable-background="new 0 0 50 50" xml:space="preserve">
<g>
	<path d="M45.967,14.51l-8.445-2.774c0,0-0.117-0.039-0.258-0.037c-0.133,0.002-0.25,0.05-0.263,0.056l-5.469,2.229v-3.667
		c0-0.327-0.21-0.618-0.521-0.72l-1.374-0.451V7.219c0-0.317-0.197-0.601-0.495-0.711L15.727,1.545c0,0-0.161-0.065-0.369-0.039
		c-0.208,0.026-0.369,0.159-0.369,0.159l-9.921,7.97c-0.179,0.144-0.284,0.361-0.284,0.591v1.748L3.83,12.656
		c-0.2,0.142-0.318,0.372-0.318,0.617v28.332c0,0.277,0.151,0.532,0.394,0.665L15.1,48.406c0.001,0,0.002,0,0.002,0
		s0.115,0.066,0.274,0.087c0.159,0.021,0.273-0.017,0.273-0.017l15.309-3.866l6.512-1.644l8.444-2.131
		c0.336-0.085,0.572-0.388,0.572-0.735l0.001-24.87C46.488,14.903,46.278,14.613,45.967,14.51z M8,43.511
		c0,0.09-0.047,0.172-0.123,0.218c-0.04,0.023-0.085,0.035-0.129,0.035c-0.042,0-0.083-0.011-0.122-0.031l-2.205-1.208
		c-0.081-0.045-0.131-0.13-0.131-0.222v-8.554c0-0.075,0.034-0.146,0.092-0.194c0.058-0.048,0.134-0.068,0.208-0.055l2.205,0.414
		C7.914,33.937,8,34.041,8,34.163V43.511z M8,31.825c0,0.071-0.03,0.14-0.082,0.188c-0.047,0.042-0.107,0.065-0.17,0.065
		c-0.008,0-0.017,0-0.024-0.001l-2.205-0.215C5.389,31.85,5.29,31.74,5.29,31.61v-4.277c0-0.131,0.101-0.24,0.232-0.251l2.205-0.183
		c0.07-0.006,0.14,0.019,0.192,0.066C7.971,27.014,8,27.081,8,27.151V31.825z M8,24.815c0,0.123-0.088,0.228-0.209,0.249
		l-2.205,0.381c-0.014,0.002-0.029,0.003-0.043,0.003c-0.059,0-0.117-0.021-0.163-0.059c-0.057-0.048-0.09-0.119-0.09-0.193v-4.277
		c0-0.108,0.068-0.202,0.169-0.238l2.205-0.778c0.077-0.026,0.163-0.015,0.23,0.032C7.96,19.982,8,20.058,8,20.14V24.815z M8,17.803
		c0,0.101-0.059,0.191-0.15,0.232l-2.205,0.976c-0.033,0.015-0.068,0.021-0.102,0.021c-0.048,0-0.096-0.014-0.138-0.041
		C5.333,18.945,5.29,18.866,5.29,18.78v-4.276c0-0.088,0.045-0.169,0.119-0.215l2.205-1.374c0.078-0.048,0.176-0.051,0.256-0.006
		C7.95,12.953,8,13.038,8,13.129V17.803z M13.92,46.756c0,0.09-0.047,0.172-0.124,0.217c-0.04,0.023-0.084,0.035-0.129,0.035
		c-0.042,0-0.083-0.01-0.121-0.031l-3.263-1.787c-0.081-0.045-0.131-0.129-0.131-0.223V34.661c0-0.075,0.034-0.146,0.092-0.194
		c0.058-0.048,0.134-0.068,0.207-0.054l3.263,0.612c0.12,0.023,0.206,0.127,0.206,0.248V46.756z M13.92,32.403
		c0,0.071-0.03,0.14-0.083,0.188c-0.046,0.042-0.107,0.065-0.17,0.065c-0.008,0-0.016-0.001-0.024-0.001l-3.263-0.319
		c-0.129-0.012-0.229-0.121-0.229-0.251v-5.153c0-0.131,0.101-0.24,0.232-0.251l3.263-0.27c0.07-0.007,0.14,0.018,0.192,0.066
		c0.052,0.048,0.082,0.115,0.082,0.185V32.403z M13.92,23.792c0,0.123-0.088,0.229-0.21,0.249l-3.263,0.563
		c-0.014,0.003-0.029,0.004-0.043,0.004c-0.059,0-0.117-0.021-0.163-0.06c-0.057-0.048-0.09-0.119-0.09-0.193v-5.153
		c0-0.106,0.068-0.202,0.169-0.238l3.263-1.15c0.078-0.027,0.163-0.016,0.23,0.031c0.067,0.048,0.107,0.125,0.107,0.207V23.792z
		 M13.92,15.181c0,0.101-0.059,0.19-0.15,0.231l-3.263,1.445c-0.033,0.015-0.068,0.021-0.102,0.021
		c-0.048,0-0.096-0.014-0.138-0.041c-0.072-0.047-0.115-0.126-0.115-0.212v-5.152c0-0.088,0.045-0.169,0.119-0.215l3.263-2.033
		c0.078-0.048,0.176-0.051,0.256-0.006c0.08,0.045,0.13,0.129,0.13,0.221V15.181z M22.62,40.506c0,0.124-0.089,0.229-0.211,0.249
		l-5.193,0.88c-0.014,0.003-0.028,0.004-0.042,0.004c-0.059,0-0.117-0.021-0.163-0.06c-0.057-0.048-0.09-0.118-0.09-0.193v-5.923
		c0-0.131,0.101-0.24,0.231-0.251l5.193-0.449c0.071-0.007,0.141,0.018,0.193,0.065c0.052,0.048,0.082,0.115,0.082,0.187V40.506z
		 M22.62,32.269c0,0.135-0.106,0.246-0.242,0.252l-5.193,0.233c-0.004,0.001-0.008,0.001-0.011,0.001
		c-0.065,0-0.127-0.025-0.175-0.07c-0.05-0.048-0.078-0.113-0.078-0.183v-5.923c0-0.068,0.028-0.135,0.078-0.182
		c0.049-0.048,0.116-0.073,0.185-0.07l5.193,0.197c0.136,0.005,0.243,0.116,0.243,0.252V32.269z M22.62,24.032
		c0,0.07-0.03,0.138-0.082,0.186c-0.047,0.043-0.108,0.066-0.171,0.066c-0.007,0-0.013,0-0.02,0l-5.193-0.413
		c-0.131-0.011-0.233-0.12-0.233-0.252v-5.923c0-0.074,0.033-0.145,0.089-0.192c0.056-0.048,0.131-0.069,0.204-0.058l5.193,0.845
		c0.123,0.02,0.212,0.125,0.212,0.249V24.032z M22.62,15.793c0,0.076-0.034,0.147-0.093,0.196c-0.045,0.037-0.102,0.057-0.16,0.057
		c-0.017,0-0.034-0.002-0.05-0.005l-5.193-1.06c-0.118-0.024-0.202-0.128-0.202-0.248V8.811c0-0.08,0.038-0.154,0.101-0.202
		c0.063-0.048,0.146-0.064,0.222-0.041l5.193,1.49c0.108,0.031,0.183,0.13,0.183,0.243V15.793z M29.131,39.402
		c0,0.124-0.089,0.229-0.21,0.25l-4.189,0.709c-0.014,0.003-0.028,0.004-0.042,0.004c-0.059,0-0.117-0.021-0.163-0.06
		c-0.057-0.048-0.09-0.119-0.09-0.193v-5.299c0-0.131,0.101-0.24,0.231-0.252l4.189-0.362c0.071-0.007,0.141,0.019,0.192,0.065
		c0.052,0.049,0.082,0.116,0.082,0.187V39.402z M29.131,31.976c0,0.135-0.106,0.246-0.241,0.253l-4.189,0.188
		c-0.004,0.001-0.008,0.001-0.011,0.001c-0.065,0-0.127-0.025-0.175-0.07c-0.05-0.048-0.078-0.113-0.078-0.183v-5.299
		c0-0.069,0.028-0.135,0.078-0.183c0.049-0.047,0.115-0.072,0.185-0.07l4.189,0.159c0.136,0.006,0.243,0.117,0.243,0.253V31.976z
		 M29.131,24.549c0,0.07-0.029,0.138-0.081,0.186c-0.047,0.043-0.108,0.067-0.171,0.067c-0.007,0-0.014-0.001-0.02-0.001
		l-4.189-0.333c-0.131-0.011-0.233-0.12-0.233-0.252v-5.299c0-0.074,0.033-0.145,0.089-0.193c0.057-0.048,0.131-0.068,0.205-0.057
		l4.189,0.681c0.122,0.021,0.212,0.126,0.212,0.25V24.549z M29.131,17.123c0,0.075-0.034,0.147-0.093,0.195
		c-0.045,0.037-0.102,0.057-0.16,0.057c-0.017,0-0.034-0.001-0.051-0.005l-4.189-0.854c-0.118-0.024-0.202-0.128-0.202-0.248v-5.299
		c0-0.079,0.037-0.153,0.101-0.201c0.064-0.048,0.146-0.064,0.222-0.041l4.189,1.202c0.108,0.031,0.183,0.13,0.183,0.242V17.123z
		 M37.538,42.232c0,0.115-0.079,0.217-0.191,0.245l-6.512,1.644c-0.021,0.005-0.041,0.008-0.062,0.008
		c-0.056,0-0.11-0.018-0.155-0.054c-0.061-0.048-0.097-0.121-0.097-0.199V27.097c0-0.069,0.028-0.135,0.077-0.183
		c0.05-0.047,0.115-0.073,0.185-0.07l6.512,0.248c0.136,0.005,0.243,0.116,0.243,0.252V42.232z M41.534,37.302
		c0,0.123-0.089,0.229-0.211,0.249l-2.591,0.438c-0.014,0.003-0.028,0.004-0.042,0.004c-0.059,0-0.117-0.021-0.163-0.06
		c-0.057-0.048-0.09-0.119-0.09-0.193v-4.137c0-0.132,0.1-0.241,0.231-0.252l2.591-0.224c0.07-0.007,0.14,0.018,0.192,0.066
		c0.052,0.048,0.082,0.115,0.082,0.185V37.302z M41.534,31.418c0,0.136-0.107,0.247-0.242,0.253l-2.59,0.116
		c-0.004,0-0.008,0-0.011,0c-0.065,0-0.128-0.024-0.175-0.07c-0.05-0.047-0.078-0.113-0.078-0.182v-4.138
		c0-0.068,0.028-0.135,0.078-0.182c0.049-0.048,0.116-0.073,0.185-0.07l2.591,0.098c0.136,0.006,0.243,0.117,0.243,0.253V31.418z
		 M41.534,25.536c0,0.07-0.03,0.138-0.082,0.185c-0.047,0.044-0.108,0.068-0.171,0.068c-0.007,0-0.013-0.001-0.02-0.001l-2.59-0.206
		c-0.132-0.011-0.233-0.12-0.233-0.252v-4.137c0-0.073,0.033-0.145,0.089-0.192c0.057-0.048,0.131-0.068,0.205-0.057l2.59,0.421
		c0.123,0.02,0.212,0.126,0.212,0.249V25.536z M41.534,19.652c0,0.076-0.034,0.148-0.093,0.196c-0.045,0.037-0.102,0.057-0.16,0.057
		c-0.017,0-0.034-0.002-0.05-0.005l-2.591-0.528c-0.118-0.024-0.202-0.128-0.202-0.248v-4.137c0-0.079,0.037-0.154,0.101-0.202
		c0.063-0.048,0.146-0.062,0.222-0.041l2.591,0.743c0.108,0.031,0.183,0.131,0.183,0.243V19.652z M44.951,36.723
		c0,0.123-0.089,0.229-0.211,0.249l-2.221,0.376c-0.014,0.002-0.028,0.004-0.043,0.004c-0.059,0-0.117-0.021-0.163-0.06
		c-0.057-0.049-0.089-0.119-0.089-0.193v-3.823c0-0.131,0.1-0.24,0.231-0.251l2.221-0.192c0.07-0.007,0.14,0.018,0.192,0.065
		c0.052,0.048,0.082,0.115,0.082,0.187V36.723z M44.951,31.265c0,0.135-0.107,0.246-0.241,0.252l-2.221,0.101
		c-0.004,0-0.008,0-0.012,0c-0.065,0-0.127-0.025-0.174-0.07c-0.05-0.048-0.078-0.113-0.078-0.183v-3.822
		c0-0.069,0.028-0.135,0.078-0.183c0.049-0.048,0.116-0.073,0.185-0.07l2.221,0.085c0.136,0.005,0.243,0.116,0.243,0.252V31.265z
		 M44.951,25.807c0,0.07-0.029,0.138-0.081,0.185c-0.047,0.044-0.108,0.067-0.172,0.067c-0.006,0-0.013,0-0.02-0.001l-2.221-0.176
		c-0.131-0.011-0.232-0.12-0.232-0.252v-3.822c0-0.074,0.033-0.144,0.089-0.192c0.057-0.049,0.131-0.069,0.204-0.058l2.221,0.361
		c0.123,0.02,0.212,0.125,0.212,0.249V25.807z M44.951,20.349c0,0.076-0.034,0.149-0.093,0.196c-0.045,0.037-0.102,0.057-0.16,0.057
		c-0.017,0-0.034-0.002-0.05-0.005l-2.221-0.453c-0.118-0.024-0.202-0.128-0.202-0.248v-3.822c0-0.079,0.037-0.154,0.101-0.202
		c0.063-0.048,0.146-0.062,0.222-0.041l2.221,0.638c0.108,0.031,0.183,0.13,0.183,0.243V20.349z"/>
	<path d="M36.49,28.103l-4.692-0.248c-0.07-0.005-0.137,0.021-0.188,0.069c-0.05,0.048-0.079,0.114-0.079,0.184v13.068
		c0,0.118,0.082,0.221,0.197,0.246l4.692,1.057c0.018,0.004,0.037,0.006,0.055,0.006c0.057,0,0.113-0.019,0.158-0.055
		c0.06-0.048,0.095-0.121,0.095-0.197V28.354C36.729,28.221,36.624,28.109,36.49,28.103z"/>
</g>
</svg>
